<?xml version="1.0" encoding="utf-8"?>
<!-- Generator: Adobe Illustrator 27.3.1, SVG Export Plug-In . SVG Version: 6.00 Build 0)  -->
<svg version="1.1" id="Layer_1" xmlns="http://www.w3.org/2000/svg" xmlns:xlink="http://www.w3.org/1999/xlink" x="0px" y="0px"
	 viewBox="0 0 2286 660" style="enable-background:new 0 0 2286 660;" xml:space="preserve">
<g id="Stack">
</g>
<g id="Problem">
</g>
<g id="The">
	<g>
		<path d="M1018.8,588.7V146.3H863v-75h385.2v75h-155.1v442.4H1018.8z"/>
		<path d="M1435.5,71.3c111,0,166.9,86,166.9,172s-55.9,171.3-166.9,171.3h-113.2v174.1h-75V71.3H1435.5z M1435.5,341.1
			c62.5,0,93.4-48.5,93.4-97c0-49.2-30.9-97.8-93.4-97.8h-113.2v194.8H1435.5z"/>
		<path d="M1917,206.1c-10.3-46.3-60.3-66.2-105.1-65.4c-34.5,0.7-72.8,12.5-93.4,39c-10.3,13.2-14,30.1-12.5,47.8
			c3.7,52.9,61.7,59.5,116.9,64.7c70.6,8.8,158,27.2,177.9,109.5c2.2,11,3.7,23.5,3.7,33.8c0,99.2-98.5,156.6-191.1,156.6
			c-79.4,0-175.7-47-185.2-138.9l-0.7-14l75-1.5l0.7,11v-2.9c5.1,47.8,63.2,72.8,111,72.8c55.1,0,115.4-30.9,115.4-83.8
			c0-5.1-0.7-11-2.2-17.6c-8.8-39-61.7-45.6-113.2-50.7c-80.1-8.1-174.2-25.7-182.3-133v0.7c-2.9-34.5,5.9-69.1,27.9-97.8
			C1694.2,91.5,1756,68,1815.5,68c79.4,0,161.7,41.2,174.9,135.3L1917,206.1z"/>
	</g>
	<g>
		<path d="M379.2,2.3c126.3,80.3,252.2,160.4,378.9,240.9c-4.6,3-8.5,5.7-12.5,8.2c-32.6,20.5-65.2,41-97.9,61.4
			c-36,22.5-72.1,44.7-108.2,67.2c-21.8,13.6-43.5,27.3-65.3,40.9c-27.6,17.2-55.3,34.4-83,51.6c-1.6,1-3.1,2.1-4.7,3
			c-9.3,5.3-6.1,5.3-14.7,0.1c-11-6.7-21.7-13.7-32.6-20.5c-17.2-10.7-34.5-21.4-51.7-32.1c-16.3-10.2-32.4-20.4-48.7-30.6
			c-26.5-16.6-53.1-33.1-79.6-49.6c-29.5-18.4-59.1-36.8-88.6-55.2C48,273.4,25.4,259.3,2.9,245.1c-0.7-0.5-1.4-1.1-2.5-2
			C126.9,162.7,252.9,82.5,379.2,2.3z M553.2,260.3c-3-1.7-5.1-2.9-7.2-4.1c-16.4-9.1-32.9-18.3-49.3-27.5c-2.3-1.3-4.4-2.8-6.3-4.6
			c-3.3-3.2-3.2-6.6,0.3-9.6c1.9-1.6,4.5-2.7,6.9-3.4c4.4-1.3,9-2.2,13.5-3.3c4.9-1.2,8.9-3.7,12.4-7.2c6.8-6.7,6.1-18-1.6-25.5
			c-11.5-11.3-25.5-15.9-41.3-14.2c-11.4,1.2-19.9,6.8-24,18c-0.4,1.2-0.9,2.4-1.5,3.6c-3.3,7.2-10.2,10.2-17.6,7.3
			c-3.3-1.3-6.4-3-9.2-5.1c-10.6-7.6-21-15.5-31.5-23.2c-5.8-4.3-11.7-8.5-17.7-12.8c-5,3.6-9.6,6.9-14.3,10.3
			c-12.6,9.2-25.2,18.5-37.8,27.8c-8.3,6-20.6,6.5-25.1-7.1c-0.1-0.2-0.2-0.3-0.2-0.5c-5.1-13.2-15.4-18.5-28.9-18.7
			c-14.1-0.2-26.2,4.8-36.4,14.4c-6.5,6.1-8.3,14.7-4.3,21.8c2.5,4.6,6.5,7.7,11.4,9.4c4.4,1.5,9,2.3,13.4,3.7
			c3.4,1,6.9,1.9,9.8,3.7c4.3,2.6,4.5,7.5,0.8,10.9c-2.2,2-4.7,3.7-7.3,5.2c-15.9,8.9-32,17.6-47.9,26.4c-2.2,1.2-4.4,2.5-7.2,4.1
			c7.3,5.3,13.8,9.9,20.3,14.6c10.3,7.4,20.4,15,30.9,22.1c3.1,2.2,6.9,3.8,10.6,4.7c7.5,1.8,12.5-1.3,15.4-8.4
			c0.4-1,0.8-2.1,1.2-3.1c3.8-10.5,11.6-16,22.3-18c6.3-1.2,12.7-0.8,18.9,0.6c10.8,2.5,20.3,7.4,27.5,16c7.1,8.5,5.4,20.3-4.1,26
			c-4.4,2.6-9.5,4.1-14.4,5.7c-4.2,1.4-8.7,2.1-12.8,3.7c-6,2.4-6.8,6.7-2.2,11.2c2.1,2,4.6,3.8,7.1,5.3c8,4.7,16.2,9.2,24.3,13.8
			c9.7,5.5,19.5,10.9,29.4,16.4c18.6-10.5,37.3-21,55.9-31.5c1.9-1.1,3.7-2.6,5.3-4.1c3.8-3.6,3.6-7.5-1-10c-3-1.7-6.5-2.6-9.9-3.6
			c-5-1.6-10.1-2.6-14.9-4.5c-13.7-5.5-16.7-19.4-6.8-30.3c4.8-5.2,10.8-8.5,17.1-11.3c9.2-4.1,19-5.4,28.9-3.2
			c9.5,2.1,17.3,6.9,20.6,16.8c0.5,1.6,1.3,3.1,2,4.6c3.3,8,10.7,9.8,16.9,7.7c3.5-1.2,6.8-3,9.9-5.1c8.9-6.1,17.6-12.6,26.3-18.9
			C537.2,272,544.8,266.4,553.2,260.3z"/>
		<path d="M703.5,299.3c18.2,11.5,36.1,22.8,54.9,34.7c-126.7,79.1-252.7,157.6-379.3,236.1C253.1,491.7,127,413.2,1,334.7
			c3.5-4.2,36.4-25.5,54.3-35.3c7.5,4.7,15.3,9.5,23,14.3c25.7,16.1,51.5,32.1,77.2,48.2c34.4,21.5,68.8,43,103.2,64.5
			c22.1,13.8,44.3,27.5,66.4,41.2c16.6,10.3,33.2,20.5,49.7,31c3.3,2.1,5.5,2.1,8.9-0.1c16.4-10.6,33.1-20.8,49.7-31.1
			c26.8-16.7,53.7-33.5,80.5-50.3c21.3-13.3,42.6-26.6,64-39.9c40.3-25.1,80.6-50.2,120.8-75.3C700.1,301.2,701.6,300.4,703.5,299.3
			z"/>
		<path d="M379.1,660C252.9,581.6,127,503.4,0,424.5c18.6-12.4,36.9-23.4,55.1-34.7c11.9,7.4,23.5,14.7,35.2,21.9
			c31.8,19.7,63.6,39.3,95.4,59.1c30.8,19.2,61.5,38.5,92.3,57.7c32.5,20.3,65.1,40.5,97.7,60.7c2.3,1.4,4,2,6.6,0.4
			c16-10.2,32.1-20.3,48.2-30.3c16.6-10.3,33.2-20.6,49.8-30.9c20.9-13,41.7-25.9,62.6-38.9c36.7-22.8,73.4-45.6,110-68.4
			c15.2-9.4,30.3-18.9,45.5-28.4c1.6-1,3.2-1.9,5-3c18.1,11.3,36.1,22.6,55.3,34.6C631.5,503.5,505.3,581.6,379.1,660z"/>
	</g>
</g>
</svg>
