<svg xmlns="http://www.w3.org/2000/svg" version="1.1" xmlns:xlink="http://www.w3.org/1999/xlink" xmlns:svgjs="http://svgjs.dev/svgjs" viewBox="0 0 800 800"><defs><linearGradient x1="50%" y1="0%" x2="50%" y2="100%" id="ggglitch-grad"><stop stop-color="hsla(38, 19%, 66%, 1.00)" stop-opacity="1" offset="45%"></stop><stop stop-color="hsla(0, 0%, 100%, 1.00)" stop-opacity="1" offset="100%"></stop></linearGradient><clipPath id="SvgjsClipPath1874"><rect width="88.88888888888889" height="800" x="0" y="0"></rect><rect width="88.88888888888889" height="800" x="177.77777777777777" y="0"></rect><rect width="88.88888888888889" height="800" x="355.55555555555554" y="0"></rect><rect width="88.88888888888889" height="800" x="533.3333333333333" y="0"></rect><rect width="88.88888888888889" height="800" x="711.1111111111111" y="0"></rect><rect width="88.88888888888889" height="800" x="888.8888888888889" y="0"></rect><rect width="88.88888888888889" height="800" x="1066.6666666666665" y="0"></rect><rect width="88.88888888888889" height="800" x="1244.4444444444443" y="0"></rect><rect width="88.88888888888889" height="800" x="1422.2222222222222" y="0"></rect><rect width="88.88888888888889" height="800" x="1600" y="0"></rect></clipPath><clipPath id="SvgjsClipPath1875"><rect width="88.88888888888889" height="800" x="88.88888888888889" y="0"></rect><rect width="88.88888888888889" height="800" x="266.66666666666663" y="0"></rect><rect width="88.88888888888889" height="800" x="444.44444444444434" y="0"></rect><rect width="88.88888888888889" height="800" x="622.2222222222222" y="0"></rect><rect width="88.88888888888889" height="800" x="800" y="0"></rect><rect width="88.88888888888889" height="800" x="977.7777777777776" y="0"></rect><rect width="88.88888888888889" height="800" x="1155.5555555555554" y="0"></rect><rect width="88.88888888888889" height="800" x="1333.3333333333333" y="0"></rect><rect width="88.88888888888889" height="800" x="1511.111111111111" y="0"></rect></clipPath></defs><g stroke-width="90" stroke="url(#ggglitch-grad)" fill="none"><polygon points="-45,45 45,-45 845,755 755,845" stroke="none" fill="url(#ggglitch-grad)" clip-path="url(&quot;#SvgjsClipPath1874&quot;)" opacity="0.29" transform="translate(0 -624)"></polygon><polygon points="-45,45 45,-45 845,755 755,845" stroke="none" fill="url(#ggglitch-grad)" clip-path="url(&quot;#SvgjsClipPath1875&quot;)" transform="translate(0 -694)"></polygon><polygon points="-45,45 45,-45 845,755 755,845" stroke="none" fill="url(#ggglitch-grad)" clip-path="url(&quot;#SvgjsClipPath1874&quot;)" opacity="0.29" transform="translate(0 -504)"></polygon><polygon points="-45,45 45,-45 845,755 755,845" stroke="none" fill="url(#ggglitch-grad)" clip-path="url(&quot;#SvgjsClipPath1875&quot;)" transform="translate(0 -574)"></polygon><polygon points="-45,45 45,-45 845,755 755,845" stroke="none" fill="url(#ggglitch-grad)" clip-path="url(&quot;#SvgjsClipPath1874&quot;)" opacity="0.29" transform="translate(0 -384)"></polygon><polygon points="-45,45 45,-45 845,755 755,845" stroke="none" fill="url(#ggglitch-grad)" clip-path="url(&quot;#SvgjsClipPath1875&quot;)" transform="translate(0 -454)"></polygon><polygon points="-45,45 45,-45 845,755 755,845" stroke="none" fill="url(#ggglitch-grad)" clip-path="url(&quot;#SvgjsClipPath1874&quot;)" opacity="0.29" transform="translate(0 -264)"></polygon><polygon points="-45,45 45,-45 845,755 755,845" stroke="none" fill="url(#ggglitch-grad)" clip-path="url(&quot;#SvgjsClipPath1875&quot;)" transform="translate(0 -334)"></polygon><polygon points="-45,45 45,-45 845,755 755,845" stroke="none" fill="url(#ggglitch-grad)" clip-path="url(&quot;#SvgjsClipPath1874&quot;)" opacity="0.29" transform="translate(0 -144)"></polygon><polygon points="-45,45 45,-45 845,755 755,845" stroke="none" fill="url(#ggglitch-grad)" clip-path="url(&quot;#SvgjsClipPath1875&quot;)" transform="translate(0 -214)"></polygon><polygon points="-45,45 45,-45 845,755 755,845" stroke="none" fill="url(#ggglitch-grad)" clip-path="url(&quot;#SvgjsClipPath1874&quot;)" opacity="0.29" transform="translate(0 -24)"></polygon><polygon points="-45,45 45,-45 845,755 755,845" stroke="none" fill="url(#ggglitch-grad)" clip-path="url(&quot;#SvgjsClipPath1875&quot;)" transform="translate(0 -94)"></polygon><polygon points="-45,45 45,-45 845,755 755,845" stroke="none" fill="url(#ggglitch-grad)" clip-path="url(&quot;#SvgjsClipPath1874&quot;)" opacity="0.29" transform="translate(0 96)"></polygon><polygon points="-45,45 45,-45 845,755 755,845" stroke="none" fill="url(#ggglitch-grad)" clip-path="url(&quot;#SvgjsClipPath1875&quot;)" transform="translate(0 26)"></polygon></g></svg>