<svg xmlns="http://www.w3.org/2000/svg" version="1.1" xmlns:xlink="http://www.w3.org/1999/xlink" xmlns:svgjs="http://svgjs.dev/svgjs" viewBox="0 0 800 800"><defs><linearGradient x1="50%" y1="0%" x2="50%" y2="100%" id="ffflurry-grad" gradientTransform="rotate(270)"><stop stop-color="hsl(0, 0%, 4%)" stop-opacity="1" offset="0%"></stop><stop stop-color="#9a763b" stop-opacity="1" offset="45%"></stop><stop stop-color="hsl(0, 0%, 100%)" stop-opacity="1" offset="100%"></stop></linearGradient></defs><rect width="100%" height="100%" fill="hsl(0, 0%, 4%)"></rect><g fill="url(#ffflurry-grad)"><rect width="88" height="3" x="649" y="554.5" rx="1.5" transform="rotate(45, 693, 556)" opacity="0.93"></rect><rect width="614" height="3" x="-2" y="387.5" rx="1.5" transform="rotate(45, 305, 389)" opacity="0.37"></rect><rect width="386" height="3" x="-31" y="715.5" rx="1.5" transform="rotate(45, 162, 717)" opacity="0.20"></rect><rect width="585" height="3" x="448.5" y="336.5" rx="1.5" transform="rotate(45, 741, 338)" opacity="0.24"></rect><rect width="142" height="3" x="67" y="214.5" rx="1.5" transform="rotate(45, 138, 216)" opacity="0.37"></rect><rect width="92" height="3" x="592" y="694.5" rx="1.5" transform="rotate(45, 638, 696)" opacity="0.30"></rect><rect width="438" height="3" x="-157" y="204.5" rx="1.5" transform="rotate(45, 62, 206)" opacity="0.47"></rect><rect width="522" height="3" x="126" y="310.5" rx="1.5" transform="rotate(45, 387, 312)" opacity="0.36"></rect><rect width="584" height="3" x="214" y="435.5" rx="1.5" transform="rotate(45, 506, 437)" opacity="0.53"></rect><rect width="347" height="3" x="224.5" y="144.5" rx="1.5" transform="rotate(45, 398, 146)" opacity="0.70"></rect><rect width="753" height="3" x="-213.5" y="543.5" rx="1.5" transform="rotate(45, 163, 545)" opacity="0.07"></rect><rect width="415" height="3" x="296.5" y="163.5" rx="1.5" transform="rotate(45, 504, 165)" opacity="0.15"></rect><rect width="684" height="3" x="-288" y="519.5" rx="1.5" transform="rotate(45, 54, 521)" opacity="0.57"></rect><rect width="301" height="3" x="-81.5" y="626.5" rx="1.5" transform="rotate(45, 69, 628)" opacity="0.56"></rect><rect width="277" height="3" x="180.5" y="44.5" rx="1.5" transform="rotate(45, 319, 46)" opacity="0.48"></rect><rect width="453" height="3" x="523.5" y="199.5" rx="1.5" transform="rotate(45, 750, 201)" opacity="0.66"></rect><rect width="310" height="3" x="95" y="748.5" rx="1.5" transform="rotate(45, 250, 750)" opacity="0.36"></rect><rect width="219" height="3" x="43.5" y="55.5" rx="1.5" transform="rotate(45, 153, 57)" opacity="0.23"></rect><rect width="536" height="3" x="-239" y="144.5" rx="1.5" transform="rotate(45, 29, 146)" opacity="0.64"></rect><rect width="414" height="3" x="-96" y="128.5" rx="1.5" transform="rotate(45, 111, 130)" opacity="0.51"></rect><rect width="482" height="3" x="506" y="460.5" rx="1.5" transform="rotate(45, 747, 462)" opacity="0.25"></rect><rect width="570" height="3" x="291" y="255.5" rx="1.5" transform="rotate(45, 576, 257)" opacity="0.22"></rect><rect width="352" height="3" x="-105" y="61.5" rx="1.5" transform="rotate(45, 71, 63)" opacity="0.99"></rect><rect width="272" height="3" x="363" y="755.5" rx="1.5" transform="rotate(45, 499, 757)" opacity="0.90"></rect><rect width="64" height="3" x="444" y="238.5" rx="1.5" transform="rotate(45, 476, 240)" opacity="0.29"></rect><rect width="448" height="3" x="152" y="627.5" rx="1.5" transform="rotate(45, 376, 629)" opacity="0.14"></rect><rect width="289" height="3" x="139.5" y="292.5" rx="1.5" transform="rotate(45, 284, 294)" opacity="0.16"></rect><rect width="338" height="3" x="91" y="520.5" rx="1.5" transform="rotate(45, 260, 522)" opacity="0.32"></rect><rect width="398" height="3" x="123" y="147.5" rx="1.5" transform="rotate(45, 322, 149)" opacity="0.86"></rect><rect width="220" height="3" x="489" y="345.5" rx="1.5" transform="rotate(45, 599, 347)" opacity="0.30"></rect><rect width="393" height="3" x="343.5" y="692.5" rx="1.5" transform="rotate(45, 540, 694)" opacity="0.63"></rect><rect width="567" height="3" x="-88.5" y="427.5" rx="1.5" transform="rotate(45, 195, 429)" opacity="0.72"></rect><rect width="310" height="3" x="111" y="212.5" rx="1.5" transform="rotate(45, 266, 214)" opacity="0.22"></rect><rect width="48" height="3" x="657" y="741.5" rx="1.5" transform="rotate(45, 681, 743)" opacity="0.87"></rect><rect width="158" height="3" x="147" y="31.5" rx="1.5" transform="rotate(45, 226, 33)" opacity="0.86"></rect><rect width="384" height="3" x="429" y="630.5" rx="1.5" transform="rotate(45, 621, 632)" opacity="0.85"></rect><rect width="160" height="3" x="328" y="771.5" rx="1.5" transform="rotate(45, 408, 773)" opacity="0.17"></rect><rect width="120" height="3" x="-28" y="29.5" rx="1.5" transform="rotate(45, 32, 31)" opacity="0.45"></rect><rect width="656" height="3" x="337" y="250.5" rx="1.5" transform="rotate(45, 665, 252)" opacity="0.54"></rect><rect width="179" height="3" x="255.5" y="233.5" rx="1.5" transform="rotate(45, 345, 235)" opacity="0.11"></rect><rect width="298" height="3" x="-124" y="417.5" rx="1.5" transform="rotate(45, 25, 419)" opacity="0.27"></rect><rect width="302" height="3" x="263" y="215.5" rx="1.5" transform="rotate(45, 414, 217)" opacity="0.28"></rect><rect width="56" height="3" x="626" y="404.5" rx="1.5" transform="rotate(45, 654, 406)" opacity="0.54"></rect><rect width="220" height="3" x="429" y="27.5" rx="1.5" transform="rotate(45, 539, 29)" opacity="0.41"></rect><rect width="30" height="3" x="738" y="768.5" rx="1.5" transform="rotate(45, 753, 770)" opacity="0.14"></rect><rect width="160" height="3" x="40" y="271.5" rx="1.5" transform="rotate(45, 120, 273)" opacity="0.15"></rect><rect width="405" height="3" x="-107.5" y="428.5" rx="1.5" transform="rotate(45, 95, 430)" opacity="0.75"></rect><rect width="425" height="3" x="-97.5" y="345.5" rx="1.5" transform="rotate(45, 115, 347)" opacity="0.85"></rect><rect width="396" height="3" x="558" y="694.5" rx="1.5" transform="rotate(45, 756, 696)" opacity="0.59"></rect><rect width="412" height="3" x="-177" y="733.5" rx="1.5" transform="rotate(45, 29, 735)" opacity="0.11"></rect><rect width="521" height="3" x="-162.5" y="753.5" rx="1.5" transform="rotate(45, 98, 755)" opacity="0.18"></rect><rect width="172" height="3" x="116" y="314.5" rx="1.5" transform="rotate(45, 202, 316)" opacity="0.29"></rect><rect width="119" height="3" x="153.5" y="200.5" rx="1.5" transform="rotate(45, 213, 202)" opacity="0.17"></rect><rect width="221" height="3" x="194.5" y="634.5" rx="1.5" transform="rotate(45, 305, 636)" opacity="0.44"></rect><rect width="45" height="3" x="398.5" y="20.5" rx="1.5" transform="rotate(45, 421, 22)" opacity="0.52"></rect><rect width="107" height="3" x="119.5" y="158.5" rx="1.5" transform="rotate(45, 173, 160)" opacity="0.23"></rect><rect width="342" height="3" x="214" y="454.5" rx="1.5" transform="rotate(45, 385, 456)" opacity="0.16"></rect><rect width="253" height="3" x="599.5" y="62.5" rx="1.5" transform="rotate(45, 726, 64)" opacity="0.80"></rect><rect width="592" height="3" x="48" y="527.5" rx="1.5" transform="rotate(45, 344, 529)" opacity="0.71"></rect><rect width="211" height="3" x="327.5" y="690.5" rx="1.5" transform="rotate(45, 433, 692)" opacity="0.81"></rect><rect width="228" height="3" x="134" y="108.5" rx="1.5" transform="rotate(45, 248, 110)" opacity="0.44"></rect><rect width="650" height="3" x="274" y="75.5" rx="1.5" transform="rotate(45, 599, 77)" opacity="0.09"></rect><rect width="182" height="3" x="531" y="161.5" rx="1.5" transform="rotate(45, 622, 163)" opacity="0.87"></rect><rect width="491" height="3" x="197.5" y="371.5" rx="1.5" transform="rotate(45, 443, 373)" opacity="0.09"></rect><rect width="455" height="3" x="281.5" y="305.5" rx="1.5" transform="rotate(45, 509, 307)" opacity="0.39"></rect><rect width="414" height="3" x="271" y="87.5" rx="1.5" transform="rotate(45, 478, 89)" opacity="0.72"></rect><rect width="84" height="3" x="-5" y="267.5" rx="1.5" transform="rotate(45, 37, 269)" opacity="0.21"></rect><rect width="106" height="3" x="-19" y="337.5" rx="1.5" transform="rotate(45, 34, 339)" opacity="0.59"></rect><rect width="335" height="3" x="228.5" y="75.5" rx="1.5" transform="rotate(45, 396, 77)" opacity="0.35"></rect><rect width="137" height="3" x="486.5" y="535.5" rx="1.5" transform="rotate(45, 555, 537)" opacity="0.13"></rect><rect width="412" height="3" x="388" y="767.5" rx="1.5" transform="rotate(45, 594, 769)" opacity="0.63"></rect><rect width="371" height="3" x="345.5" y="615.5" rx="1.5" transform="rotate(45, 531, 617)" opacity="0.70"></rect><rect width="130" height="3" x="689" y="611.5" rx="1.5" transform="rotate(45, 754, 613)" opacity="0.28"></rect><rect width="312" height="3" x="180" y="739.5" rx="1.5" transform="rotate(45, 336, 741)" opacity="0.65"></rect><rect width="577" height="3" x="-68.5" y="638.5" rx="1.5" transform="rotate(45, 220, 640)" opacity="0.52"></rect><rect width="584" height="3" x="154" y="563.5" rx="1.5" transform="rotate(45, 446, 565)" opacity="0.91"></rect><rect width="512" height="3" x="354" y="472.5" rx="1.5" transform="rotate(45, 610, 474)" opacity="0.90"></rect></g></svg>