<svg xmlns="http://www.w3.org/2000/svg" version="1.1" xmlns:xlink="http://www.w3.org/1999/xlink" xmlns:svgjs="http://svgjs.dev/svgjs" width="1000" height="5000" preserveAspectRatio="none" viewBox="0 0 1000 5000"><g mask="url(&quot;#SvgjsMask1087&quot;)" fill="none"><path d="M655 412L654 3809" stroke-width="6" stroke="url(&quot;#SvgjsLinearGradient1088&quot;)" stroke-linecap="round" class="Down"></path><path d="M78 705L77 -843" stroke-width="10" stroke="url(&quot;#SvgjsLinearGradient1089&quot;)" stroke-linecap="round" class="Up"></path><path d="M213 1459L212 3994" stroke-width="6" stroke="url(&quot;#SvgjsLinearGradient1089&quot;)" stroke-linecap="round" class="Up"></path><path d="M52 4745L51 7586" stroke-width="8" stroke="url(&quot;#SvgjsLinearGradient1088&quot;)" stroke-linecap="round" class="Down"></path><path d="M878 1390L877 2795" stroke-width="6" stroke="url(&quot;#SvgjsLinearGradient1088&quot;)" stroke-linecap="round" class="Down"></path><path d="M335 3167L334 4732" stroke-width="10" stroke="url(&quot;#SvgjsLinearGradient1088&quot;)" stroke-linecap="round" class="Down"></path><path d="M218 4517L217 1733" stroke-width="6" stroke="url(&quot;#SvgjsLinearGradient1088&quot;)" stroke-linecap="round" class="Down"></path><path d="M766 652L765 -1307" stroke-width="6" stroke="url(&quot;#SvgjsLinearGradient1090&quot;)" stroke-linecap="round" class="Down"></path><path d="M75 810L74 -744" stroke-width="10" stroke="url(&quot;#SvgjsLinearGradient1089&quot;)" stroke-linecap="round" class="Up"></path><path d="M464 1748L463 -1442" stroke-width="8" stroke="url(&quot;#SvgjsLinearGradient1091&quot;)" stroke-linecap="round" class="Up"></path><path d="M270 4458L269 2352" stroke-width="8" stroke="url(&quot;#SvgjsLinearGradient1090&quot;)" stroke-linecap="round" class="Down"></path><path d="M864 268L863 2403" stroke-width="8" stroke="url(&quot;#SvgjsLinearGradient1089&quot;)" stroke-linecap="round" class="Up"></path><path d="M263 3136L262 843" stroke-width="10" stroke="url(&quot;#SvgjsLinearGradient1088&quot;)" stroke-linecap="round" class="Down"></path><path d="M830 2541L829 4181" stroke-width="6" stroke="url(&quot;#SvgjsLinearGradient1088&quot;)" stroke-linecap="round" class="Down"></path><path d="M375 2596L374 4717" stroke-width="6" stroke="url(&quot;#SvgjsLinearGradient1088&quot;)" stroke-linecap="round" class="Down"></path><path d="M358 2231L357 -1473" stroke-width="8" stroke="url(&quot;#SvgjsLinearGradient1088&quot;)" stroke-linecap="round" class="Down"></path><path d="M579 626L578 1998" stroke-width="10" stroke="url(&quot;#SvgjsLinearGradient1088&quot;)" stroke-linecap="round" class="Down"></path><path d="M83 512L82 1988" stroke-width="10" stroke="url(&quot;#SvgjsLinearGradient1091&quot;)" stroke-linecap="round" class="Up"></path><path d="M239 1433L238 -285" stroke-width="8" stroke="url(&quot;#SvgjsLinearGradient1088&quot;)" stroke-linecap="round" class="Down"></path><path d="M359 465L358 -1511" stroke-width="8" stroke="url(&quot;#SvgjsLinearGradient1090&quot;)" stroke-linecap="round" class="Down"></path><path d="M335 2200L334 5935" stroke-width="6" stroke="url(&quot;#SvgjsLinearGradient1090&quot;)" stroke-linecap="round" class="Down"></path><path d="M290 676L289 2357" stroke-width="8" stroke="url(&quot;#SvgjsLinearGradient1088&quot;)" stroke-linecap="round" class="Down"></path><path d="M65 4181L64 7264" stroke-width="8" stroke="url(&quot;#SvgjsLinearGradient1089&quot;)" stroke-linecap="round" class="Up"></path><path d="M177 4142L176 2873" stroke-width="8" stroke="url(&quot;#SvgjsLinearGradient1091&quot;)" stroke-linecap="round" class="Up"></path><path d="M68 2567L67 5326" stroke-width="10" stroke="url(&quot;#SvgjsLinearGradient1091&quot;)" stroke-linecap="round" class="Up"></path></g><defs><mask id="SvgjsMask1087"><rect width="1000" height="5000" fill="#ffffff"></rect></mask><linearGradient x1="0%" y1="0%" x2="0%" y2="100%" id="SvgjsLinearGradient1088"><stop stop-color="rgba(189, 189, 189, 0)" offset="0"></stop><stop stop-color="rgba(189, 189, 189, 1)" offset="1"></stop></linearGradient><linearGradient x1="0%" y1="100%" x2="0%" y2="0%" id="SvgjsLinearGradient1089"><stop stop-color="rgba(189, 189, 189, 0)" offset="0"></stop><stop stop-color="rgba(189, 189, 189, 1)" offset="1"></stop></linearGradient><linearGradient x1="0%" y1="0%" x2="0%" y2="100%" id="SvgjsLinearGradient1090"><stop stop-color="rgba(223, 223, 223, 0)" offset="0"></stop><stop stop-color="rgba(223, 223, 223, 1)" offset="1"></stop></linearGradient><linearGradient x1="0%" y1="100%" x2="0%" y2="0%" id="SvgjsLinearGradient1091"><stop stop-color="rgba(223, 223, 223, 0)" offset="0"></stop><stop stop-color="rgba(223, 223, 223, 1)" offset="1"></stop></linearGradient></defs></svg>